<svg xmlns="http://www.w3.org/2000/svg" xmlns:xlink="http://www.w3.org/1999/xlink" width="1040" height="711.3"><rect width="1040" height="711.3" rx="5" ry="5" class="a"/><svg y="0%" x="0%"><circle cx="20" cy="20" r="6" fill="#ff5f58"/><circle cx="40" cy="20" r="6" fill="#ffbd2e"/><circle cx="60" cy="20" r="6" fill="#18c132"/></svg><svg height="651.3" viewBox="0 0 100 65.13" width="1000" x="15" xmlns="http://www.w3.org/2000/svg" xmlns:xlink="http://www.w3.org/1999/xlink" y="50"><style>@keyframes k{0%{transform:translateX(0)}1.2%{transform:translateX(-100px)}2.5%{transform:translateX(-200px)}3.8%{transform:translateX(-300px)}5.1%{transform:translateX(-400px)}6.4%{transform:translateX(-500px)}7.7%{transform:translateX(-600px)}9%{transform:translateX(-700px)}10.2%{transform:translateX(-800px)}11.5%{transform:translateX(-900px)}12.8%{transform:translateX(-1000px)}14.1%{transform:translateX(-1100px)}15.4%{transform:translateX(-1200px)}16.7%{transform:translateX(-1300px)}18%{transform:translateX(-1400px)}19.3%{transform:translateX(-1500px)}20.5%{transform:translateX(-1600px)}21.8%{transform:translateX(-1700px)}23.1%{transform:translateX(-1800px)}24.4%{transform:translateX(-1900px)}25.7%{transform:translateX(-2000px)}27%{transform:translateX(-2100px)}28.3%{transform:translateX(-2200px)}29.6%{transform:translateX(-2300px)}30.8%{transform:translateX(-2400px)}32.1%{transform:translateX(-2500px)}33.4%{transform:translateX(-2600px)}34.7%{transform:translateX(-2700px)}36%{transform:translateX(-2800px)}37.3%{transform:translateX(-2900px)}38.6%{transform:translateX(-3000px)}39.9%{transform:translateX(-3100px)}41.1%{transform:translateX(-3200px)}42.4%{transform:translateX(-3300px)}43.7%{transform:translateX(-3400px)}45%{transform:translateX(-3500px)}45.9%{transform:translateX(-5100px)}51.3%{transform:translateX(-5200px)}56.7%{transform:translateX(-5300px)}62.2%{transform:translateX(-5400px)}67.6%{transform:translateX(-5500px)}73%{transform:translateX(-5600px)}78.4%{transform:translateX(-5700px)}83.8%{transform:translateX(-5800px)}89.2%{transform:translateX(-5900px)}94.6%{transform:translateX(-6000px)}to{transform:translateX(-6200px)}}.a{fill:#282d35}.f,.h{fill:#b9c0cb;white-space:pre}.h{fill:#66c2cd;font-weight:700}</style><g font-family="Monaco,Consolas,Menlo,'Bitstream Vera Sans Mono','Powerline Symbols',monospace" font-size="1.67"><defs><symbol id="1"><text y="1.67" class="f">$</text><text x="2.004" y="1.67" class="f">eegh</text></symbol><symbol id="2"><text y="1.67" class="f">$</text><text x="2.004" y="1.67" class="f">eegh</text><text x="7.014" y="1.67" class="f">inspect</text></symbol><symbol id="3"><text y="1.67" class="f">$</text><text x="2.004" y="1.67" class="f">eegh</text><text x="7.014" y="1.67" class="f">inspect</text><text x="15.03" y="1.67" class="f">data/sample/clean.edf</text></symbol><symbol id="4"><text y="1.67" style="white-space:pre" fill="#b9c0cb" font-weight="700">inspect</text><text x="9.018" y="1.67" class="f">data/sample/clean.edf</text></symbol><symbol id="5"><text x="30.06" y="1.67" class="f">montage:</text><text x="43.086" y="1.67" class="h">10</text><text x="45.09" y="1.67" class="f">-</text><text x="46.092" y="1.67" class="h">20</text></symbol><symbol id="6"><text x="48.096" y="1.67" class="f">sfreq:</text><text x="61.122" y="1.67" class="h">256.0</text><text x="67.134" y="1.67" class="f">Hz</text></symbol><symbol id="7"><text x="69.138" y="1.67" class="f">reference:</text><text x="82.164" y="1.67" class="f">unknown</text></symbol><symbol id="8"><text x="89.178" y="1.67" class="f">channels:</text></symbol><symbol id="9"><text x="2.004" y="1.67" class="h">8</text><text x="5.01" y="1.67" class="f">Fp1,</text><text x="10.02" y="1.67" class="f">Fp2,</text><text x="15.03" y="1.67" class="f">C3,</text><text x="19.038" y="1.67" class="f">C4,</text><text x="23.046" y="1.67" class="f">O1,</text><text x="27.054" y="1.67" class="f">O2,</text><text x="31.062" y="1.67" class="f">T7,</text><text x="35.07" y="1.67" class="f">T8</text></symbol><symbol id="10"><text x="37.074" y="1.67" class="f">duration:</text><text x="50.1" y="1.67" class="h">30.000</text><text x="57.114" y="1.67" class="f">s</text></symbol><symbol id="11"><text x="58.116" y="1.67" class="f">ann.</text><text x="63.126" y="1.67" class="f">vocab:</text><text x="71.142" y="1.67" class="f">seizure</text></symbol><symbol id="12"><text x="78.156" y="1.67" class="f">present:</text><text x="91.182" y="1.67" class="f">signal_ar</text></symbol><symbol id="13"><text y="1.67" class="f">ray,</text><text x="5.01" y="1.67" class="f">channel_names,</text><text x="20.04" y="1.67" class="f">channel_units,</text><text x="35.07" y="1.67" class="f">sampling_rate_hz,</text><text x="53.106" y="1.67" class="f">n_channels,</text><text x="65.13" y="1.67" class="f">duration_sec,</text></symbol><symbol id="14"><text x="78.156" y="1.67" class="f">montage_system,</text><text x="94.188" y="1.67" class="f">refere</text></symbol><symbol id="15"><text y="1.67" class="f">nce_scheme,</text><text x="12.024" y="1.67" class="f">annotation_intervals,</text><text x="34.068" y="1.67" class="f">annotation_vocabulary,</text><text x="57.114" y="1.67" class="f">recording_datetime,</text></symbol><symbol id="16"><text x="77.154" y="1.67" class="f">filter_settings</text></symbol><symbol id="17"><text x="92.184" y="1.67" class="f">missing:</text></symbol><symbol id="18"><text x="5.01" y="1.67" class="f">channel_types,</text><text x="20.04" y="1.67" class="f">provenance,</text><text x="32.064" y="1.67" class="f">subject_id,</text><text x="44.088" y="1.67" class="f">subject_age,</text><text x="57.114" y="1.67" class="f">subject_sex,</text><text x="70.14" y="1.67" class="f">channel_positions_3d,</text></symbol><symbol id="19"><text x="92.184" y="1.67" class="f">power_li</text></symbol><symbol id="20"><text y="1.67" class="f">ne_frequency,</text><text x="14.028" y="1.67" class="f">institution,</text><text x="27.054" y="1.67" class="f">task</text></symbol><symbol id="21"><text x="31.062" y="1.67" class="f">Research</text><text x="40.08" y="1.67" class="f">infrastructure.</text><text x="56.112" y="1.67" class="f">Harmonized</text><text x="67.134" y="1.67" class="f">EEG</text><text x="71.142" y="1.67" class="f">is</text><text x="74.148" y="1.67" class="f">not</text><text x="78.156" y="1.67" class="f">a</text><text x="80.16" y="1.67" class="f">diagnostic</text><text x="91.182" y="1.67" class="f">and</text><text x="95.19" y="1.67" class="f">is</text><text x="98.196" y="1.67" class="f">no</text></symbol><symbol id="22"><text y="1.67" class="f">t</text><text x="2.004" y="1.67" class="f">clinical</text><text x="11.022" y="1.67" class="f">advice.</text><text x="19.038" y="1.67" class="f">Sample</text><text x="26.052" y="1.67" class="f">clips</text></symbol><symbol id="23"><text x="31.062" y="1.67" class="f">in</text><text x="34.068" y="1.67" class="f">this</text><text x="39.078" y="1.67" class="f">repository</text><text x="50.1" y="1.67" class="f">are</text><text x="54.108" y="1.67" class="f">designed,</text><text x="64.128" y="1.67" class="f">not</text><text x="68.136" y="1.67" class="f">patient</text><text x="76.152" y="1.67" class="f">records.</text></symbol><symbol id="a"><path fill="transparent" d="M0 0h100v31H0z"/></symbol><symbol id="b"><path fill="#6f7683" d="M0 0h1.102v2.171H0z"/></symbol></defs><path class="a" d="M0 0h100v65.13H0z"/><g style="animation-duration:6.4737s;animation-iteration-count:infinite;animation-name:k;animation-timing-function:steps(1,end)"><svg width="6300"><svg><use xlink:href="#a"/><use xlink:href="#b" x="-.004"/></svg><svg x="100"><use xlink:href="#a"/><use xlink:href="#b" x="1.996"/><text y="1.67" class="f">$</text></svg><svg x="200"><use xlink:href="#a"/><use xlink:href="#b" x="2.996"/><text y="1.67" class="f">$</text><text x="2.004" y="1.67" class="f">e</text></svg><svg x="300"><use xlink:href="#a"/><use xlink:href="#b" x="3.996"/><text y="1.67" class="f">$</text><text x="2.004" y="1.67" class="f">ee</text></svg><svg x="400"><use xlink:href="#a"/><use xlink:href="#b" x="4.996"/><text y="1.67" class="f">$</text><text x="2.004" y="1.67" class="f">eeg</text></svg><svg x="500"><use xlink:href="#a"/><use xlink:href="#b" x="5.996"/><use xlink:href="#1"/></svg><svg x="600"><use xlink:href="#a"/><use xlink:href="#b" x="6.996"/><use xlink:href="#1"/></svg><svg x="700"><use xlink:href="#a"/><use xlink:href="#b" x="7.996"/><text y="1.67" class="f">$</text><text x="2.004" y="1.67" class="f">eegh</text><text x="7.014" y="1.67" class="f">i</text></svg><svg x="800"><use xlink:href="#a"/><use xlink:href="#b" x="8.996"/><text y="1.67" class="f">$</text><text x="2.004" y="1.67" class="f">eegh</text><text x="7.014" y="1.67" class="f">in</text></svg><svg x="900"><use xlink:href="#a"/><use xlink:href="#b" x="9.996"/><text y="1.67" class="f">$</text><text x="2.004" y="1.67" class="f">eegh</text><text x="7.014" y="1.67" class="f">ins</text></svg><svg x="1000"><use xlink:href="#a"/><use xlink:href="#b" x="10.996"/><text y="1.67" class="f">$</text><text x="2.004" y="1.67" class="f">eegh</text><text x="7.014" y="1.67" class="f">insp</text></svg><svg x="1100"><use xlink:href="#a"/><use xlink:href="#b" x="11.996"/><text y="1.67" class="f">$</text><text x="2.004" y="1.67" class="f">eegh</text><text x="7.014" y="1.67" class="f">inspe</text></svg><svg x="1200"><use xlink:href="#a"/><use xlink:href="#b" x="12.996"/><text y="1.67" class="f">$</text><text x="2.004" y="1.67" class="f">eegh</text><text x="7.014" y="1.67" class="f">inspec</text></svg><svg x="1300"><use xlink:href="#a"/><use xlink:href="#b" x="13.996"/><use xlink:href="#2"/></svg><svg x="1400"><use xlink:href="#a"/><use xlink:href="#b" x="14.996"/><use xlink:href="#2"/></svg><svg x="1500"><use xlink:href="#a"/><use xlink:href="#b" x="15.996"/><text y="1.67" class="f">$</text><text x="2.004" y="1.67" class="f">eegh</text><text x="7.014" y="1.67" class="f">inspect</text><text x="15.03" y="1.67" class="f">d</text></svg><svg x="1600"><use xlink:href="#a"/><use xlink:href="#b" x="16.996"/><text y="1.67" class="f">$</text><text x="2.004" y="1.67" class="f">eegh</text><text x="7.014" y="1.67" class="f">inspect</text><text x="15.03" y="1.67" class="f">da</text></svg><svg x="1700"><use xlink:href="#a"/><use xlink:href="#b" x="17.996"/><text y="1.67" class="f">$</text><text x="2.004" y="1.67" class="f">eegh</text><text x="7.014" y="1.67" class="f">inspect</text><text x="15.03" y="1.67" class="f">dat</text></svg><svg x="1800"><use xlink:href="#a"/><use xlink:href="#b" x="18.996"/><text y="1.67" class="f">$</text><text x="2.004" y="1.67" class="f">eegh</text><text x="7.014" y="1.67" class="f">inspect</text><text x="15.03" y="1.67" class="f">data</text></svg><svg x="1900"><use xlink:href="#a"/><use xlink:href="#b" x="19.996"/><text y="1.67" class="f">$</text><text x="2.004" y="1.67" class="f">eegh</text><text x="7.014" y="1.67" class="f">inspect</text><text x="15.03" y="1.67" class="f">data/</text></svg><svg x="2000"><use xlink:href="#a"/><use xlink:href="#b" x="20.996"/><text y="1.67" class="f">$</text><text x="2.004" y="1.67" class="f">eegh</text><text x="7.014" y="1.67" class="f">inspect</text><text x="15.03" y="1.67" class="f">data/s</text></svg><svg x="2100"><use xlink:href="#a"/><use xlink:href="#b" x="21.996"/><text y="1.67" class="f">$</text><text x="2.004" y="1.67" class="f">eegh</text><text x="7.014" y="1.67" class="f">inspect</text><text x="15.03" y="1.67" class="f">data/sa</text></svg><svg x="2200"><use xlink:href="#a"/><use xlink:href="#b" x="22.996"/><text y="1.67" class="f">$</text><text x="2.004" y="1.67" class="f">eegh</text><text x="7.014" y="1.67" class="f">inspect</text><text x="15.03" y="1.67" class="f">data/sam</text></svg><svg x="2300"><use xlink:href="#a"/><use xlink:href="#b" x="23.996"/><text y="1.67" class="f">$</text><text x="2.004" y="1.67" class="f">eegh</text><text x="7.014" y="1.67" class="f">inspect</text><text x="15.03" y="1.67" class="f">data/samp</text></svg><svg x="2400"><use xlink:href="#a"/><use xlink:href="#b" x="24.996"/><text y="1.67" class="f">$</text><text x="2.004" y="1.67" class="f">eegh</text><text x="7.014" y="1.67" class="f">inspect</text><text x="15.03" y="1.67" class="f">data/sampl</text></svg><svg x="2500"><use xlink:href="#a"/><use xlink:href="#b" x="25.996"/><text y="1.67" class="f">$</text><text x="2.004" y="1.67" class="f">eegh</text><text x="7.014" y="1.67" class="f">inspect</text><text x="15.03" y="1.67" class="f">data/sample</text></svg><svg x="2600"><use xlink:href="#a"/><use xlink:href="#b" x="26.996"/><text y="1.67" class="f">$</text><text x="2.004" y="1.67" class="f">eegh</text><text x="7.014" y="1.67" class="f">inspect</text><text x="15.03" y="1.67" class="f">data/sample/</text></svg><svg x="2700"><use xlink:href="#a"/><use xlink:href="#b" x="27.996"/><text y="1.67" class="f">$</text><text x="2.004" y="1.67" class="f">eegh</text><text x="7.014" y="1.67" class="f">inspect</text><text x="15.03" y="1.67" class="f">data/sample/c</text></svg><svg x="2800"><use xlink:href="#a"/><use xlink:href="#b" x="28.996"/><text y="1.67" class="f">$</text><text x="2.004" y="1.67" class="f">eegh</text><text x="7.014" y="1.67" class="f">inspect</text><text x="15.03" y="1.67" class="f">data/sample/cl</text></svg><svg x="2900"><use xlink:href="#a"/><use xlink:href="#b" x="29.996"/><text y="1.67" class="f">$</text><text x="2.004" y="1.67" class="f">eegh</text><text x="7.014" y="1.67" class="f">inspect</text><text x="15.03" y="1.67" class="f">data/sample/cle</text></svg><svg x="3000"><use xlink:href="#a"/><use xlink:href="#b" x="30.996"/><text y="1.67" class="f">$</text><text x="2.004" y="1.67" class="f">eegh</text><text x="7.014" y="1.67" class="f">inspect</text><text x="15.03" y="1.67" class="f">data/sample/clea</text></svg><svg x="3100"><use xlink:href="#a"/><use xlink:href="#b" x="31.996"/><text y="1.67" class="f">$</text><text x="2.004" y="1.67" class="f">eegh</text><text x="7.014" y="1.67" class="f">inspect</text><text x="15.03" y="1.67" class="f">data/sample/clean</text></svg><svg x="3200"><use xlink:href="#a"/><use xlink:href="#b" x="32.996"/><text y="1.67" class="f">$</text><text x="2.004" y="1.67" class="f">eegh</text><text x="7.014" y="1.67" class="f">inspect</text><text x="15.03" y="1.67" class="f">data/sample/clean.</text></svg><svg x="3300"><use xlink:href="#a"/><use xlink:href="#b" x="33.996"/><text y="1.67" class="f">$</text><text x="2.004" y="1.67" class="f">eegh</text><text x="7.014" y="1.67" class="f">inspect</text><text x="15.03" y="1.67" class="f">data/sample/clean.e</text></svg><svg x="3400"><use xlink:href="#a"/><use xlink:href="#b" x="34.996"/><text y="1.67" class="f">$</text><text x="2.004" y="1.67" class="f">eegh</text><text x="7.014" y="1.67" class="f">inspect</text><text x="15.03" y="1.67" class="f">data/sample/clean.ed</text></svg><svg x="3500"><use xlink:href="#a"/><use xlink:href="#b" x="35.996"/><use xlink:href="#3"/></svg><svg x="3600"><use xlink:href="#a"/><use xlink:href="#b" x="-.004" y="2.146"/><use xlink:href="#3"/></svg><svg x="3700"><use xlink:href="#a"/><use xlink:href="#b" x="29.996" y="4.317"/><use xlink:href="#3"/><use xlink:href="#4" y="2.171"/></svg><svg x="3800"><use xlink:href="#a"/><use xlink:href="#b" x="47.996" y="6.488"/><use xlink:href="#3"/><use xlink:href="#4" y="2.171"/><use xlink:href="#5" y="4.342"/></svg><svg x="3900"><use xlink:href="#a"/><use xlink:href="#b" x="68.996" y="8.659"/><use xlink:href="#3"/><use xlink:href="#4" y="2.171"/><use xlink:href="#5" y="4.342"/><use xlink:href="#6" y="6.513"/></svg><svg x="4000"><use xlink:href="#a"/><use xlink:href="#b" x="88.996" y="10.83"/><use xlink:href="#3"/><use xlink:href="#4" y="2.171"/><use xlink:href="#5" y="4.342"/><use xlink:href="#6" y="6.513"/><use xlink:href="#7" y="8.684"/></svg><svg x="4100"><use xlink:href="#a"/><use xlink:href="#b" x="36.996" y="15.172"/><use xlink:href="#3"/><use xlink:href="#4" y="2.171"/><use xlink:href="#5" y="4.342"/><use xlink:href="#6" y="6.513"/><use xlink:href="#7" y="8.684"/><use xlink:href="#8" y="10.855"/><use xlink:href="#9" y="13.026"/></svg><svg x="4200"><use xlink:href="#a"/><use xlink:href="#b" x="57.996" y="17.343"/><use xlink:href="#3"/><use xlink:href="#4" y="2.171"/><use xlink:href="#5" y="4.342"/><use xlink:href="#6" y="6.513"/><use xlink:href="#7" y="8.684"/><use xlink:href="#8" y="10.855"/><use xlink:href="#9" y="13.026"/><use xlink:href="#10" y="15.197"/></svg><svg x="4300"><use xlink:href="#a"/><use xlink:href="#b" x="77.996" y="19.514"/><use xlink:href="#3"/><use xlink:href="#4" y="2.171"/><use xlink:href="#5" y="4.342"/><use xlink:href="#6" y="6.513"/><use xlink:href="#7" y="8.684"/><use xlink:href="#8" y="10.855"/><use xlink:href="#9" y="13.026"/><use xlink:href="#10" y="15.197"/><use xlink:href="#11" y="17.368"/></svg><svg x="4400"><use xlink:href="#a"/><use xlink:href="#b" x="77.996" y="23.856"/><use xlink:href="#3"/><use xlink:href="#4" y="2.171"/><use xlink:href="#5" y="4.342"/><use xlink:href="#6" y="6.513"/><use xlink:href="#7" y="8.684"/><use xlink:href="#8" y="10.855"/><use xlink:href="#9" y="13.026"/><use xlink:href="#10" y="15.197"/><use xlink:href="#11" y="17.368"/><use xlink:href="#12" y="19.539"/><use xlink:href="#13" y="21.71"/></svg><svg x="4500"><use xlink:href="#a"/><use xlink:href="#b" x="76.996" y="28.198"/><use xlink:href="#3"/><use xlink:href="#4" y="2.171"/><use xlink:href="#5" y="4.342"/><use xlink:href="#6" y="6.513"/><use xlink:href="#7" y="8.684"/><use xlink:href="#8" y="10.855"/><use xlink:href="#9" y="13.026"/><use xlink:href="#10" y="15.197"/><use xlink:href="#11" y="17.368"/><use xlink:href="#12" y="19.539"/><use xlink:href="#13" y="21.71"/><use xlink:href="#14" y="23.881"/><use xlink:href="#15" y="26.052"/></svg><svg x="4600"><use xlink:href="#a"/><use xlink:href="#b" x="91.996" y="30.369"/><use xlink:href="#3"/><use xlink:href="#4" y="2.171"/><use xlink:href="#5" y="4.342"/><use xlink:href="#6" y="6.513"/><use xlink:href="#7" y="8.684"/><use xlink:href="#8" y="10.855"/><use xlink:href="#9" y="13.026"/><use xlink:href="#10" y="15.197"/><use xlink:href="#11" y="17.368"/><use xlink:href="#12" y="19.539"/><use xlink:href="#13" y="21.71"/><use xlink:href="#14" y="23.881"/><use xlink:href="#15" y="26.052"/><use xlink:href="#16" y="28.223"/></svg><svg x="4700"><use xlink:href="#a"/><use xlink:href="#b" x="91.996" y="34.711"/><use xlink:href="#3"/><use xlink:href="#4" y="2.171"/><use xlink:href="#5" y="4.342"/><use xlink:href="#6" y="6.513"/><use xlink:href="#7" y="8.684"/><use xlink:href="#8" y="10.855"/><use xlink:href="#9" y="13.026"/><use xlink:href="#10" y="15.197"/><use xlink:href="#11" y="17.368"/><use xlink:href="#12" y="19.539"/><use xlink:href="#13" y="21.71"/><use xlink:href="#14" y="23.881"/><use xlink:href="#15" y="26.052"/><use xlink:href="#16" y="28.223"/><use xlink:href="#17" y="30.394"/><use xlink:href="#18" y="32.565"/></svg><svg x="4800"><use xlink:href="#a"/><use xlink:href="#b" x="30.996" y="39.053"/><use xlink:href="#3"/><use xlink:href="#4" y="2.171"/><use xlink:href="#5" y="4.342"/><use xlink:href="#6" y="6.513"/><use xlink:href="#7" y="8.684"/><use xlink:href="#8" y="10.855"/><use xlink:href="#9" y="13.026"/><use xlink:href="#10" y="15.197"/><use xlink:href="#11" y="17.368"/><use xlink:href="#12" y="19.539"/><use xlink:href="#13" y="21.71"/><use xlink:href="#14" y="23.881"/><use xlink:href="#15" y="26.052"/><use xlink:href="#16" y="28.223"/><use xlink:href="#17" y="30.394"/><use xlink:href="#18" y="32.565"/><use xlink:href="#19" y="34.736"/><use xlink:href="#20" y="36.907"/></svg><svg x="4900"><use xlink:href="#a"/><use xlink:href="#b" x="30.996" y="41.224"/><use xlink:href="#3"/><use xlink:href="#4" y="2.171"/><use xlink:href="#5" y="4.342"/><use xlink:href="#6" y="6.513"/><use xlink:href="#7" y="8.684"/><use xlink:href="#8" y="10.855"/><use xlink:href="#9" y="13.026"/><use xlink:href="#10" y="15.197"/><use xlink:href="#11" y="17.368"/><use xlink:href="#12" y="19.539"/><use xlink:href="#13" y="21.71"/><use xlink:href="#14" y="23.881"/><use xlink:href="#15" y="26.052"/><use xlink:href="#16" y="28.223"/><use xlink:href="#17" y="30.394"/><use xlink:href="#18" y="32.565"/><use xlink:href="#19" y="34.736"/><use xlink:href="#20" y="36.907"/></svg><svg x="5000"><use xlink:href="#a"/><use xlink:href="#b" x="30.996" y="45.566"/><use xlink:href="#3"/><use xlink:href="#4" y="2.171"/><use xlink:href="#5" y="4.342"/><use xlink:href="#6" y="6.513"/><use xlink:href="#7" y="8.684"/><use xlink:href="#8" y="10.855"/><use xlink:href="#9" y="13.026"/><use xlink:href="#10" y="15.197"/><use xlink:href="#11" y="17.368"/><use xlink:href="#12" y="19.539"/><use xlink:href="#13" y="21.71"/><use xlink:href="#14" y="23.881"/><use xlink:href="#15" y="26.052"/><use xlink:href="#16" y="28.223"/><use xlink:href="#17" y="30.394"/><use xlink:href="#18" y="32.565"/><use xlink:href="#19" y="34.736"/><use xlink:href="#20" y="36.907"/><use xlink:href="#21" y="41.249"/><use xlink:href="#22" y="43.42"/></svg><svg x="5100"><use xlink:href="#a"/><use xlink:href="#b" x="83.996" y="47.737"/><use xlink:href="#3"/><use xlink:href="#4" y="2.171"/><use xlink:href="#5" y="4.342"/><use xlink:href="#6" y="6.513"/><use xlink:href="#7" y="8.684"/><use xlink:href="#8" y="10.855"/><use xlink:href="#9" y="13.026"/><use xlink:href="#10" y="15.197"/><use xlink:href="#11" y="17.368"/><use xlink:href="#12" y="19.539"/><use xlink:href="#13" y="21.71"/><use xlink:href="#14" y="23.881"/><use xlink:href="#15" y="26.052"/><use xlink:href="#16" y="28.223"/><use xlink:href="#17" y="30.394"/><use xlink:href="#18" y="32.565"/><use xlink:href="#19" y="34.736"/><use xlink:href="#20" y="36.907"/><use xlink:href="#21" y="41.249"/><use xlink:href="#22" y="43.42"/><use xlink:href="#23" y="45.591"/></svg><svg x="5200"><use xlink:href="#a"/><use xlink:href="#b" x="83.996" y="47.737"/><use xlink:href="#3"/><use xlink:href="#4" y="2.171"/><use xlink:href="#5" y="4.342"/><use xlink:href="#6" y="6.513"/><use xlink:href="#7" y="8.684"/><use xlink:href="#8" y="10.855"/><use xlink:href="#9" y="13.026"/><use xlink:href="#10" y="15.197"/><use xlink:href="#11" y="17.368"/><use xlink:href="#12" y="19.539"/><use xlink:href="#13" y="21.71"/><use xlink:href="#14" y="23.881"/><use xlink:href="#15" y="26.052"/><use xlink:href="#16" y="28.223"/><use xlink:href="#17" y="30.394"/><use xlink:href="#18" y="32.565"/><use xlink:href="#19" y="34.736"/><use xlink:href="#20" y="36.907"/><use xlink:href="#21" y="41.249"/><use xlink:href="#22" y="43.42"/><use xlink:href="#23" y="45.591"/></svg><svg x="5300"><use xlink:href="#a"/><use xlink:href="#b" x="83.996" y="47.737"/><use xlink:href="#3"/><use xlink:href="#4" y="2.171"/><use xlink:href="#5" y="4.342"/><use xlink:href="#6" y="6.513"/><use xlink:href="#7" y="8.684"/><use xlink:href="#8" y="10.855"/><use xlink:href="#9" y="13.026"/><use xlink:href="#10" y="15.197"/><use xlink:href="#11" y="17.368"/><use xlink:href="#12" y="19.539"/><use xlink:href="#13" y="21.71"/><use xlink:href="#14" y="23.881"/><use xlink:href="#15" y="26.052"/><use xlink:href="#16" y="28.223"/><use xlink:href="#17" y="30.394"/><use xlink:href="#18" y="32.565"/><use xlink:href="#19" y="34.736"/><use xlink:href="#20" y="36.907"/><use xlink:href="#21" y="41.249"/><use xlink:href="#22" y="43.42"/><use xlink:href="#23" y="45.591"/></svg><svg x="5400"><use xlink:href="#a"/><use xlink:href="#b" x="83.996" y="47.737"/><use xlink:href="#3"/><use xlink:href="#4" y="2.171"/><use xlink:href="#5" y="4.342"/><use xlink:href="#6" y="6.513"/><use xlink:href="#7" y="8.684"/><use xlink:href="#8" y="10.855"/><use xlink:href="#9" y="13.026"/><use xlink:href="#10" y="15.197"/><use xlink:href="#11" y="17.368"/><use xlink:href="#12" y="19.539"/><use xlink:href="#13" y="21.71"/><use xlink:href="#14" y="23.881"/><use xlink:href="#15" y="26.052"/><use xlink:href="#16" y="28.223"/><use xlink:href="#17" y="30.394"/><use xlink:href="#18" y="32.565"/><use xlink:href="#19" y="34.736"/><use xlink:href="#20" y="36.907"/><use xlink:href="#21" y="41.249"/><use xlink:href="#22" y="43.42"/><use xlink:href="#23" y="45.591"/></svg><svg x="5500"><use xlink:href="#a"/><use xlink:href="#b" x="83.996" y="47.737"/><use xlink:href="#3"/><use xlink:href="#4" y="2.171"/><use xlink:href="#5" y="4.342"/><use xlink:href="#6" y="6.513"/><use xlink:href="#7" y="8.684"/><use xlink:href="#8" y="10.855"/><use xlink:href="#9" y="13.026"/><use xlink:href="#10" y="15.197"/><use xlink:href="#11" y="17.368"/><use xlink:href="#12" y="19.539"/><use xlink:href="#13" y="21.71"/><use xlink:href="#14" y="23.881"/><use xlink:href="#15" y="26.052"/><use xlink:href="#16" y="28.223"/><use xlink:href="#17" y="30.394"/><use xlink:href="#18" y="32.565"/><use xlink:href="#19" y="34.736"/><use xlink:href="#20" y="36.907"/><use xlink:href="#21" y="41.249"/><use xlink:href="#22" y="43.42"/><use xlink:href="#23" y="45.591"/></svg><svg x="5600"><use xlink:href="#a"/><use xlink:href="#b" x="83.996" y="47.737"/><use xlink:href="#3"/><use xlink:href="#4" y="2.171"/><use xlink:href="#5" y="4.342"/><use xlink:href="#6" y="6.513"/><use xlink:href="#7" y="8.684"/><use xlink:href="#8" y="10.855"/><use xlink:href="#9" y="13.026"/><use xlink:href="#10" y="15.197"/><use xlink:href="#11" y="17.368"/><use xlink:href="#12" y="19.539"/><use xlink:href="#13" y="21.71"/><use xlink:href="#14" y="23.881"/><use xlink:href="#15" y="26.052"/><use xlink:href="#16" y="28.223"/><use xlink:href="#17" y="30.394"/><use xlink:href="#18" y="32.565"/><use xlink:href="#19" y="34.736"/><use xlink:href="#20" y="36.907"/><use xlink:href="#21" y="41.249"/><use xlink:href="#22" y="43.42"/><use xlink:href="#23" y="45.591"/></svg><svg x="5700"><use xlink:href="#a"/><use xlink:href="#b" x="83.996" y="47.737"/><use xlink:href="#3"/><use xlink:href="#4" y="2.171"/><use xlink:href="#5" y="4.342"/><use xlink:href="#6" y="6.513"/><use xlink:href="#7" y="8.684"/><use xlink:href="#8" y="10.855"/><use xlink:href="#9" y="13.026"/><use xlink:href="#10" y="15.197"/><use xlink:href="#11" y="17.368"/><use xlink:href="#12" y="19.539"/><use xlink:href="#13" y="21.71"/><use xlink:href="#14" y="23.881"/><use xlink:href="#15" y="26.052"/><use xlink:href="#16" y="28.223"/><use xlink:href="#17" y="30.394"/><use xlink:href="#18" y="32.565"/><use xlink:href="#19" y="34.736"/><use xlink:href="#20" y="36.907"/><use xlink:href="#21" y="41.249"/><use xlink:href="#22" y="43.42"/><use xlink:href="#23" y="45.591"/></svg><svg x="5800"><use xlink:href="#a"/><use xlink:href="#b" x="83.996" y="47.737"/><use xlink:href="#3"/><use xlink:href="#4" y="2.171"/><use xlink:href="#5" y="4.342"/><use xlink:href="#6" y="6.513"/><use xlink:href="#7" y="8.684"/><use xlink:href="#8" y="10.855"/><use xlink:href="#9" y="13.026"/><use xlink:href="#10" y="15.197"/><use xlink:href="#11" y="17.368"/><use xlink:href="#12" y="19.539"/><use xlink:href="#13" y="21.71"/><use xlink:href="#14" y="23.881"/><use xlink:href="#15" y="26.052"/><use xlink:href="#16" y="28.223"/><use xlink:href="#17" y="30.394"/><use xlink:href="#18" y="32.565"/><use xlink:href="#19" y="34.736"/><use xlink:href="#20" y="36.907"/><use xlink:href="#21" y="41.249"/><use xlink:href="#22" y="43.42"/><use xlink:href="#23" y="45.591"/></svg><svg x="5900"><use xlink:href="#a"/><use xlink:href="#b" x="83.996" y="47.737"/><use xlink:href="#3"/><use xlink:href="#4" y="2.171"/><use xlink:href="#5" y="4.342"/><use xlink:href="#6" y="6.513"/><use xlink:href="#7" y="8.684"/><use xlink:href="#8" y="10.855"/><use xlink:href="#9" y="13.026"/><use xlink:href="#10" y="15.197"/><use xlink:href="#11" y="17.368"/><use xlink:href="#12" y="19.539"/><use xlink:href="#13" y="21.71"/><use xlink:href="#14" y="23.881"/><use xlink:href="#15" y="26.052"/><use xlink:href="#16" y="28.223"/><use xlink:href="#17" y="30.394"/><use xlink:href="#18" y="32.565"/><use xlink:href="#19" y="34.736"/><use xlink:href="#20" y="36.907"/><use xlink:href="#21" y="41.249"/><use xlink:href="#22" y="43.42"/><use xlink:href="#23" y="45.591"/></svg><svg x="6000"><use xlink:href="#a"/><use xlink:href="#b" x="83.996" y="47.737"/><use xlink:href="#3"/><use xlink:href="#4" y="2.171"/><use xlink:href="#5" y="4.342"/><use xlink:href="#6" y="6.513"/><use xlink:href="#7" y="8.684"/><use xlink:href="#8" y="10.855"/><use xlink:href="#9" y="13.026"/><use xlink:href="#10" y="15.197"/><use xlink:href="#11" y="17.368"/><use xlink:href="#12" y="19.539"/><use xlink:href="#13" y="21.71"/><use xlink:href="#14" y="23.881"/><use xlink:href="#15" y="26.052"/><use xlink:href="#16" y="28.223"/><use xlink:href="#17" y="30.394"/><use xlink:href="#18" y="32.565"/><use xlink:href="#19" y="34.736"/><use xlink:href="#20" y="36.907"/><use xlink:href="#21" y="41.249"/><use xlink:href="#22" y="43.42"/><use xlink:href="#23" y="45.591"/></svg><svg x="6100"><use xlink:href="#a"/><use xlink:href="#b" x="83.996" y="47.737"/><use xlink:href="#3"/><use xlink:href="#4" y="2.171"/><use xlink:href="#5" y="4.342"/><use xlink:href="#6" y="6.513"/><use xlink:href="#7" y="8.684"/><use xlink:href="#8" y="10.855"/><use xlink:href="#9" y="13.026"/><use xlink:href="#10" y="15.197"/><use xlink:href="#11" y="17.368"/><use xlink:href="#12" y="19.539"/><use xlink:href="#13" y="21.71"/><use xlink:href="#14" y="23.881"/><use xlink:href="#15" y="26.052"/><use xlink:href="#16" y="28.223"/><use xlink:href="#17" y="30.394"/><use xlink:href="#18" y="32.565"/><use xlink:href="#19" y="34.736"/><use xlink:href="#20" y="36.907"/><use xlink:href="#21" y="41.249"/><use xlink:href="#22" y="43.42"/><use xlink:href="#23" y="45.591"/></svg><svg x="6200"><use xlink:href="#a"/><use xlink:href="#b" x="83.996" y="47.737"/><use xlink:href="#3"/><use xlink:href="#4" y="2.171"/><use xlink:href="#5" y="4.342"/><use xlink:href="#6" y="6.513"/><use xlink:href="#7" y="8.684"/><use xlink:href="#8" y="10.855"/><use xlink:href="#9" y="13.026"/><use xlink:href="#10" y="15.197"/><use xlink:href="#11" y="17.368"/><use xlink:href="#12" y="19.539"/><use xlink:href="#13" y="21.71"/><use xlink:href="#14" y="23.881"/><use xlink:href="#15" y="26.052"/><use xlink:href="#16" y="28.223"/><use xlink:href="#17" y="30.394"/><use xlink:href="#18" y="32.565"/><use xlink:href="#19" y="34.736"/><use xlink:href="#20" y="36.907"/><use xlink:href="#21" y="41.249"/><use xlink:href="#22" y="43.42"/><use xlink:href="#23" y="45.591"/></svg></svg></g></g></svg></svg>